<svg xmlns="http://www.w3.org/2000/svg" xmlns:xlink="http://www.w3.org/1999/xlink" width="0" height="0" style="display:none;"><symbol id="svgtofont-arrow_back"><path d="M32.75 44.3 12.45 24l20.3-20.3 3.1 3.15L18.7 24l17.15 17.15Z"></path></symbol><symbol id="svgtofont-arrow_right"><path d="m15.2 43.9-2.8-2.85L29.55 23.9 12.4 6.75l2.8-2.85 20 20Z"></path></symbol><symbol id="svgtofont-burger"><path d="M3.8 20.1v-2.25q0-5.3 5.35-8.7Q14.5 5.75 24 5.75t14.85 3.4q5.35 3.4 5.35 8.7v2.25Zm3.6-3.2h33.2q-.25-3.3-4.825-5.525Q31.2 9.15 24 9.15t-11.825 2.225Q7.55 13.6 7.4 16.9Zm-3.6 12v-3.2q1.65 0 2.9-1.1t3.95-1.1q2.7 0 3.625 1.1.925 1.1 2.925 1.1 2.05 0 3.075-1.1Q21.3 23.5 24 23.5t3.725 1.1q1.025 1.1 3.075 1.1 2 0 2.925-1.1.925-1.1 3.625-1.1t3.95 1.1q1.25 1.1 2.9 1.1v3.2q-2.7 0-3.75-1.1-1.05-1.1-3.1-1.1t-2.95 1.1q-.9 1.1-3.6 1.1-2.75 0-3.75-1.1T24 26.7q-2.05 0-3.05 1.1t-3.75 1.1q-2.7 0-3.6-1.1-.9-1.1-2.95-1.1-2.05 0-3.1 1.1-1.05 1.1-3.75 1.1Zm3.4 13.55q-1.4 0-2.4-1t-1-2.4v-6.6h40.4v6.6q0 1.4-1 2.4t-2.4 1Zm0-3.4h33.6v-3.4H7.2v3.4Zm0-3.4h33.6Zm.2-18.75h33.2Z"></path></symbol><symbol id="svgtofont-cafe"><path d="M7.45 42.45V39H39.7v3.45Zm7.85-6.3q-3.25 0-5.55-2.25t-2.3-5.55V5.55H40.9q1.45 0 2.45 1 1 1 1 2.45v8q0 1.4-1 2.4t-2.45 1h-4.65v7.95q0 3.3-2.3 5.55t-5.55 2.25Zm0-3.4h13.1q1.75 0 3.1-1.325t1.35-3.075V9h-22v19.35q0 1.75 1.375 3.075Q13.6 32.75 15.3 32.75ZM36.25 17h4.65V9h-4.65Zm-14.4 3.85Z"></path></symbol><symbol id="svgtofont-cashew_nut"></symbol><symbol viewBox="0 0 512 512" id="svgtofont-celery">
<g>
	<g>
		<path d="M511.996,245.866l-65.059-39.121l8.529-22.822l-0.071-0.027c5.41-3.978,10.784-8.645,16.179-14.042l17.831-17.838
			l-61.131-22.201l10.7-57.672l-57.637,10.718l-22.214-61.122l-17.831,17.817c-4.269,4.266-10.384,10.383-16.226,18.151
			l-19.794,7.368L266.131,0l-22.346,54.127l-58.118-40.495l4.805,37.372c2.188,17.059,4.818,37.564,13.533,56.35L42.408,268.951
			c-25.364,25.355-39.493,52.092-41.996,79.47c-3.281,35.896,13.207,72.247,48.96,107.997l6.16,6.176
			c32.824,32.821,66.109,49.407,99.087,49.405c2.988-0.001,5.979-0.137,8.961-0.41c27.373-2.504,54.113-16.631,79.477-41.992
			l161.594-161.592c18.855,8.758,39.436,11.369,56.557,13.541l37.12,4.718l-40.463-58.056L511.996,245.866z M32.395,351.344
			c1.801-19.698,12.808-39.778,32.719-59.682L244.38,112.4l-7.041-10.897c-3.616-5.597-6.272-11.887-8.302-18.509l29.183,20.334
			l13.262-32.124l20.013,33.27l16.595-6.177c-0.563,5.883-0.377,12.097,0.85,18.637c-31.588,31.555-168.455,168.281-192.748,192.582
			c-28.354,28.346-52.132,72.703-47.215,121.021C42.421,402.95,30.113,376.323,32.395,351.344z M104.359,389.927
			c8.357-29.268,26.938-50.101,34.542-57.703c27.356-27.362,197.513-197.342,199.228-199.055l7.051-7.043l-3.182-9.445
			c-4.189-12.437-1.721-23.362,5.044-34.161l13.408,36.893l38.416-7.144l-7.133,38.441l35.818,13.008
			c-10.452,5.542-22.819,8.119-36.741,2.839l-9.701-3.677l-7.34,7.332c-1.727,1.725-173.004,172.808-200.381,200.185
			c-8.242,8.242-35.576,32.797-72.546,37.694C101.446,402.082,102.618,396.024,104.359,389.927z M429.013,282.979
			c-6.614-2.029-12.901-4.687-18.494-8.306l-10.899-7.054l-179.271,179.27c-34.696,34.691-68.864,41.999-105.341,21.79
			c-5.523-9.315-9.501-18.828-11.898-28.511c47.973-5.68,82.632-36.702,92.988-47.057c24.237-24.238,161.307-161.156,193.577-193.39
			c8.361,1.938,16.745,2.383,25.102,1.338l-7.269,19.45l33.272,20.008l-32.121,13.259L429.013,282.979z"></path>
	</g>
</g>
<g>
</g>
<g>
</g>
<g>
</g>
<g>
</g>
<g>
</g>
<g>
</g>
<g>
</g>
<g>
</g>
<g>
</g>
<g>
</g>
<g>
</g>
<g>
</g>
<g>
</g>
<g>
</g>
<g>
</g>
</symbol><symbol viewBox="0 0 24 24" id="svgtofont-checkbox_blank"><path d="M19,3H5C3.89,3 3,3.89 3,5V19A2,2 0 0,0 5,21H19A2,2 0 0,0 21,19V5C21,3.89 20.1,3 19,3Z"></path></symbol><symbol viewBox="0 0 24 24" id="svgtofont-checkbox_marked"><path d="M10,17L5,12L6.41,10.58L10,14.17L17.59,6.58L19,8M19,3H5C3.89,3 3,3.89 3,5V19A2,2 0 0,0 5,21H19A2,2 0 0,0 21,19V5C21,3.89 20.1,3 19,3Z"></path></symbol><symbol id="svgtofont-close"><path d="m12.45 37.95-2.4-2.4L21.6 24 10.05 12.45l2.4-2.4L24 21.6l11.55-11.55 2.4 2.4L26.4 24l11.55 11.55-2.4 2.4L24 26.4Z"></path></symbol><symbol id="svgtofont-dashboard"><path d="M25.45 19.35V5.45h17.1v13.9Zm-20 6.4V5.45h17.1v20.3Zm20 16.75V22.25h17.1V42.5Zm-20 0V28.6h17.1v13.9Z"></path></symbol><symbol viewBox="0 0 485 485" id="svgtofont-egg">
<g>
	<path d="M242.487,0C143.618,0,56.89,126.999,56.89,271.777c0,55.311,19.312,108.222,54.379,148.987
		c17.126,19.91,36.958,35.62,58.944,46.695C193.319,479.098,217.631,485,242.474,485c24.842,0,49.157-5.901,72.268-17.538
		c21.991-11.073,41.829-26.782,58.961-46.69c35.085-40.767,54.407-93.681,54.407-148.995C428.11,126.999,341.371,0,242.487,0z
		 M242.474,455C158.139,455,86.89,371.094,86.89,271.777C86.89,145.24,161.053,30,242.487,30
		c81.448,0,155.623,115.24,155.623,241.777C398.11,371.094,326.838,455,242.474,455z"></path>
	<path d="M187.079,355.551c-19.186-22.303-30.189-52.838-30.189-83.773h-30c0,38.008,13.648,75.673,37.446,103.337
		C186.46,400.835,214.211,415,242.474,415v-30C223.088,385,203.415,374.542,187.079,355.551z"></path>
</g>
<g>
</g>
<g>
</g>
<g>
</g>
<g>
</g>
<g>
</g>
<g>
</g>
<g>
</g>
<g>
</g>
<g>
</g>
<g>
</g>
<g>
</g>
<g>
</g>
<g>
</g>
<g>
</g>
<g>
</g>
</symbol><symbol viewBox="0 0 512.001 512.001" id="svgtofont-fish">
<g>
	<g>
		<path d="M507.679,189.353c-2.708-1.91-6.176-2.387-9.3-1.275l-76.712,27.307c-18.171-16.599-45.366-37.685-81.455-55.655
			c3.274-7.449,5.969-13.844,8.02-19.041c5.324-13.483,6.599-18.813,3.659-23.801c-1.742-2.954-4.815-4.891-8.22-5.179
			c-128.301-10.903-203.566,15.184-206.707,16.298c-0.128,0.046-0.248,0.104-0.373,0.154c-28.928,9.495-58.174,29.292-86.212,58.598
			c-30.13,31.492-48.25,62.575-49.007,63.883c-1.828,3.16-1.828,7.056,0,10.216c0.757,1.308,18.878,32.392,49.007,63.883
			c29.303,30.628,59.925,50.87,90.125,59.82c9.867,3.237,60.488,18.388,143.557,18.388c18.848,0,39.378-0.781,61.47-2.658
			c3.412-0.291,6.488-2.232,8.228-5.193c3.011-5.125,1.643-10.557-4.297-25.37c-2.279-5.683-5.241-12.631-8.813-20.679
			c34.055-17.544,60.857-37.679,79.463-53.812l78.271,27.862c1.113,0.396,2.269,0.591,3.42,0.591c2.079,0,4.137-0.635,5.881-1.865
			c2.709-1.911,4.319-5.019,4.319-8.334V197.687C511.998,194.373,510.387,191.265,507.679,189.353z M330.064,131.124
			c-1.681,4.373-4.297,10.765-8.365,20.034c-19.789-8.491-41.866-15.851-66.202-21.096
			C277.49,129.122,302.434,129.23,330.064,131.124z M251.045,381.608c26.04-5.739,49.842-14.075,71.218-23.694
			c4.814,10.866,7.807,18.146,9.66,22.964C301.645,382.949,274.564,382.866,251.045,381.608z M175.563,369.433
			c-18.158,0-35.546-5.171-51.702-13.346c22.597-23.709,38.793-54.374,46.083-87.654c1.206-5.502-2.279-10.94-7.781-12.145
			c-5.502-1.203-10.94,2.277-12.145,7.781c-6.853,31.282-22.477,59.912-44.267,81.347c-42.529-28.601-73.863-74.42-83.571-89.663
			c14.502-22.769,77.197-113.68,153.384-113.68c109.171,0,184.196,47.106,224.137,81.135l-63.983,22.776
			c-4.064,1.446-6.778,5.294-6.778,9.609s2.715,8.161,6.778,9.609l62.12,22.113C355.214,322.023,278.195,369.433,175.563,369.433z
			 M369.551,255.59l97.488-34.703l-25.219,27.857c-3.518,3.886-3.518,9.805,0,13.69l25.219,27.858L369.551,255.59z M491.6,287.028
			l-28.461-31.438l28.461-31.439V287.028z"></path>
	</g>
</g>
<g>
	<g>
		<path d="M164.267,216.158c-5.633,0-10.199,4.566-10.199,10.199c0,2.32-0.045,4.66-0.135,6.954
			c-0.218,5.629,4.167,10.37,9.795,10.588c0.135,0.005,0.269,0.007,0.403,0.007c5.451,0,9.972-4.31,10.186-9.803
			c0.099-2.557,0.149-5.163,0.149-7.745C174.466,220.724,169.9,216.158,164.267,216.158z"></path>
	</g>
</g>
<g>
	<g>
		<path d="M94.708,221.407c-7.071,0-12.823,5.752-12.823,12.823s5.752,12.825,12.823,12.825s12.823-5.753,12.823-12.825
			S101.78,221.407,94.708,221.407z"></path>
	</g>
</g>
<g>
	<g>
		<path d="M229.793,265.715c-1.933-2.137-4.679-3.356-7.561-3.356c-2.881,0-5.628,1.219-7.562,3.354l-55.105,60.872
			c-3.518,3.886-3.518,9.805,0,13.69c9.318,10.292,21.789,15.961,35.114,15.961s25.796-5.669,35.114-15.961
			C248.403,319.72,248.403,286.271,229.793,265.715z M214.672,326.585c-5.401,5.967-12.501,9.253-19.991,9.253
			c-4.52,0-8.898-1.196-12.846-3.457l39.016-43.099C225.846,301.56,223.787,316.516,214.672,326.585z"></path>
	</g>
</g>
<g>
</g>
<g>
</g>
<g>
</g>
<g>
</g>
<g>
</g>
<g>
</g>
<g>
</g>
<g>
</g>
<g>
</g>
<g>
</g>
<g>
</g>
<g>
</g>
<g>
</g>
<g>
</g>
<g>
</g>
</symbol><symbol id="svgtofont-frozen"><path d="M22.5 44v-9.75l-7.45 7.45-2.15-2.1 9.6-9.6v-4.5H18l-9.4 9.4-2.2-2.05 7.35-7.35H4v-3h9.75L6.25 15l2.15-2.15L18 22.5h4.5v-4.55l-9.4-9.4 2.1-2.2 7.3 7.35V4h3v9.7L33 6.2l2.1 2.15-9.6 9.6v4.55h4.55l9.45-9.45 2.15 2.1-7.35 7.35H44v3h-9.7l7.4 7.45-2.05 2.15-9.6-9.6H25.5V30l9.6 9.65-2.05 2.15-7.55-7.55V44Z"></path></symbol><symbol viewBox="0 0 24 24" id="svgtofont-info"><path d="M13,9H11V7H13M13,17H11V11H13M12,2A10,10 0 0,0 2,12A10,10 0 0,0 12,22A10,10 0 0,0 22,12A10,10 0 0,0 12,2Z"></path></symbol><symbol viewBox="0 0 29 29" id="svgtofont-leaf">
<path d="M3.875 24.7083C2.65278 23.4583 1.70139 22.0139 1.02083 20.375C0.340278 18.7361 0 17.0556 0 15.3333C0 13.3056 0.354167 11.4514 1.0625 9.77084C1.77083 8.09029 2.83333 6.54167 4.25 5.12501C5.22222 4.15279 6.43056 3.33334 7.875 2.66667C9.31944 2.00001 11.0208 1.47917 12.9792 1.10417C14.9375 0.729174 17.1528 0.493062 19.625 0.39584C22.0972 0.298618 24.8472 0.347229 27.875 0.541674C28.0972 3.54167 28.1736 6.28473 28.1042 8.77084C28.0347 11.257 27.8125 13.4861 27.4375 15.4583C27.0625 17.4306 26.5347 19.1597 25.8542 20.6458C25.1736 22.132 24.3333 23.375 23.3333 24.375C21.9167 25.7917 20.3889 26.8611 18.75 27.5833C17.1111 28.3056 15.3611 28.6667 13.5 28.6667C11.5833 28.6667 9.82639 28.3403 8.22917 27.6875C6.63194 27.0347 5.18056 26.0417 3.875 24.7083ZM8.16667 24.7083C8.86111 25.1806 9.66667 25.5417 10.5833 25.7917C11.5 26.0417 12.4722 26.1667 13.5 26.1667C14.9722 26.1667 16.4028 25.8611 17.7917 25.25C19.1806 24.6389 20.4444 23.75 21.5833 22.5833C22.3333 21.8333 22.9722 20.8542 23.5 19.6458C24.0278 18.4375 24.4583 17.007 24.7917 15.3542C25.125 13.7014 25.3472 11.8333 25.4583 9.75001C25.5694 7.66667 25.5694 5.37501 25.4583 2.87501C22.8472 2.81945 20.5069 2.85417 18.4375 2.97917C16.3681 3.10417 14.5417 3.33334 12.9583 3.66667C11.375 4.00001 10.0139 4.42362 8.875 4.93751C7.73611 5.4514 6.80556 6.08334 6.08333 6.83334C4.91667 8.02778 4.02778 9.29167 3.41667 10.625C2.80556 11.9583 2.5 13.3195 2.5 14.7083C2.5 16.0417 2.78472 17.4375 3.35417 18.8958C3.92361 20.3542 4.625 21.5278 5.45833 22.4167C6.93056 19.6945 8.69444 17.25 10.75 15.0833C12.8056 12.9167 14.9861 11.2083 17.2917 9.95834C14.875 12.0417 12.9167 14.2986 11.4167 16.7292C9.91667 19.1597 8.83333 21.8195 8.16667 24.7083Z" fill="#000000"></path>
</symbol><symbol viewBox="0 0 24 24" id="svgtofont-map"><path d="M20.5,3L20.34,3.03L15,5.1L9,3L3.36,4.9C3.15,4.97 3,5.15 3,5.38V20.5A0.5,0.5 0 0,0 3.5,21L3.66,20.97L9,18.9L15,21L20.64,19.1C20.85,19.03 21,18.85 21,18.62V3.5A0.5,0.5 0 0,0 20.5,3M10,5.47L14,6.87V18.53L10,17.13V5.47M5,6.46L8,5.45V17.15L5,18.31V6.46M19,17.54L16,18.55V6.86L19,5.7V17.54Z"></path></symbol><symbol viewBox="0 0 24 24" id="svgtofont-menu"><path d="M8.1,13.34L3.91,9.16C2.35,7.59 2.35,5.06 3.91,3.5L10.93,10.5L8.1,13.34M14.88,11.53L13.41,13L20.29,19.88L18.88,21.29L12,14.41L5.12,21.29L3.71,19.88L13.47,10.12C12.76,8.59 13.26,6.44 14.85,4.85C16.76,2.93 19.5,2.57 20.96,4.03C22.43,5.5 22.07,8.24 20.15,10.15C18.56,11.74 16.41,12.24 14.88,11.53Z"></path></symbol><symbol viewBox="0 0 447.1 447.1" id="svgtofont-milk">
<g transform="translate(0 -540.36)">
	<g>
		<g>
			<path d="M296.75,651.86L296.75,651.86c-9.7-21.3-18.8-41.4-18.8-60.3v-3.9c3.4-0.7,6-3.7,6-7.3v-32.5c0-4.1-3.4-7.5-7.5-7.5
				h-105.9c-4.1,0-7.5,3.4-7.5,7.5v32.5c0,3.6,2.6,6.6,6,7.3v3.9c0,18.9-9.1,39-18.8,60.3c-10.9,24.1-22.2,49-22.2,75.8v199.8
				c0,14.6,4,26.6,12,35.7c6.9,11.3,20.4,24.3,36.5,24.3h94c12.7,0,27.9-12.2,36.5-24.3c7.6-10.1,12-23.1,12-35.6v-199.8
				C318.95,700.86,307.65,675.96,296.75,651.86z M178.05,555.36h90.9v17.5h-90.9V555.36z M303.95,927.46c0,9.3-3.3,19-9.1,26.6v0
				c0,0.1-0.1,0.1-0.1,0.2c-7.5,10.6-18.8,18.1-24.3,18.1h-94c-8,0-17.9-7.2-24-17.5c-0.3-0.4-0.6-0.9-0.9-1.2
				c-5.7-6.3-8.6-15.1-8.6-26.2v-39.9h161V927.46z M303.95,872.46h-161v-117.3h161V872.46z M303.95,740.16h-161v-12.5
				c0-23.6,10.6-47,20.9-69.6h0c10.4-22.8,20.1-44.4,20.1-66.5v-3.7h79v3.7c0,22.1,9.8,43.7,20.1,66.5
				c10.3,22.6,20.9,46.1,20.9,69.6V740.16z"></path>
			<path d="M262.65,679.16c3.5-2.2,4.6-6.8,2.4-10.3c-2.5-4-9.2-15.3-11.2-20.9c-2.4-8.2-5-26-5-26.2c-0.6-4.1-4.4-7-8.5-6.4
				c-4.1,0.6-7,4.4-6.4,8.5c0.1,0.8,2.7,19.4,5.5,28.6c0,0.1,0.1,0.2,0.1,0.3c2.8,8,11.6,22.3,12.6,23.9c1.4,2.3,3.9,3.6,6.4,3.6v0
				C259.85,680.26,261.25,679.86,262.65,679.16z"></path>
			<circle cx="267.45" cy="696.858" r="8"></circle>
		</g>
	</g>
</g>
<g>
</g>
<g>
</g>
<g>
</g>
<g>
</g>
<g>
</g>
<g>
</g>
<g>
</g>
<g>
</g>
<g>
</g>
<g>
</g>
<g>
</g>
<g>
</g>
<g>
</g>
<g>
</g>
<g>
</g>
</symbol><symbol viewBox="0 0 206.917 206.917" id="svgtofont-mustard">
<g>
	<g>
		<path d="M130.841,53.149l-3.417-20.501c-0.296-1.782-1.839-3.089-3.645-3.089h-4.128l-3.29-26.323
			C116.13,1.389,114.559,0,112.695,0h-14.78c-1.864,0-3.435,1.389-3.666,3.237l-3.29,26.323h-4.128
			c-1.806,0-3.348,1.306-3.644,3.089l-3.234,19.405c-8.671,1.526-15.291,9.061-15.291,18.151v33.254v33.254v51.729
			c0,10.186,8.297,18.475,18.498,18.475h40.597c10.201,0,18.498-8.288,18.498-18.475v-51.729v-33.254V70.203
			C142.254,62.524,137.534,55.933,130.841,53.149z M101.177,7.39h8.256l2.771,22.169H98.406L101.177,7.39z M89.961,36.949h4.259
			h22.169h4.259l2.463,14.78H87.498L89.961,36.949z M72.051,70.203c0-6.112,4.983-11.084,11.108-11.084h40.597
			c6.125,0,11.108,4.972,11.108,11.085v29.559H72.051V70.203z M134.865,188.44c-0.001,6.113-4.984,11.085-11.109,11.085H83.159
			c-6.125,0-11.108-4.972-11.108-11.085v-48.034h62.814V188.44z M134.865,133.017L134.865,133.017H72.051v-25.864h62.814V133.017z"></path>
	</g>
</g>
<g>
</g>
<g>
</g>
<g>
</g>
<g>
</g>
<g>
</g>
<g>
</g>
<g>
</g>
<g>
</g>
<g>
</g>
<g>
</g>
<g>
</g>
<g>
</g>
<g>
</g>
<g>
</g>
<g>
</g>
</symbol><symbol id="svgtofont-opening_hours">
    <path d="m31.35 33.65 2.25-2.25-7.95-8V13.35h-3V24.6ZM24 44q-4.1 0-7.75-1.575-3.65-1.575-6.375-4.3-2.725-2.725-4.3-6.375Q4 28.1 4 24t1.575-7.75q1.575-3.65 4.3-6.375 2.725-2.725 6.375-4.3Q19.9 4 24 4t7.75 1.575q3.65 1.575 6.375 4.3 2.725 2.725 4.3 6.375Q44 19.9 44 24t-1.575 7.75q-1.575 3.65-4.3 6.375-2.725 2.725-6.375 4.3Q28.1 44 24 44Zm0-20Zm0 17q7 0 12-5t5-12q0-7-5-12T24 7q-7 0-12 5T7 24q0 7 5 12t12 5Z"></path>
</symbol><symbol viewBox="0 0 72.000000 72.000000" id="svgtofont-pig">

<g transform="translate(0.000000,72.000000) scale(0.100000,-0.100000)" fill="#000000" stroke="none">
<path d="M340 505 c-71 -16 -120 -38 -158 -70 -18 -15 -37 -23 -46 -19 -16 6
-17 5 -20 -67 -1 -22 -11 -38 -34 -58 -31 -25 -33 -29 -21 -53 16 -36 89 -49
132 -25 l28 17 -3 -38 c-2 -31 0 -37 17 -40 15 -2 27 11 50 53 31 58 55 71 55
31 0 -35 -10 -56 -26 -56 -19 0 -18 -19 1 -26 26 -10 45 16 45 62 l0 44 53 0
52 0 -4 -46 c-4 -62 12 -78 45 -41 24 29 32 57 14 57 -5 0 -17 -12 -25 -27
l-16 -28 5 34 c4 18 6 39 6 46 0 7 9 15 20 18 20 5 27 -10 45 -96 6 -32 33
-47 46 -26 12 20 29 107 29 149 0 100 -6 135 -26 138 -10 2 -30 14 -44 27 -48
45 -133 61 -220 40z m188 -42 c23 -13 42 -28 42 -33 0 -6 8 -10 18 -10 15 0
17 -12 20 -83 1 -48 -3 -103 -12 -132 -13 -49 -13 -49 -21 -20 -24 100 -37
135 -50 135 -8 0 -15 -6 -15 -14 0 -17 -43 -26 -121 -26 -56 0 -59 1 -59 25 0
29 -20 75 -33 75 -5 0 -6 -8 -2 -17 18 -44 16 -59 -15 -124 -19 -38 -37 -69
-40 -69 -3 0 -4 27 -2 60 5 70 -6 77 -37 24 -21 -35 -23 -36 -68 -31 -63 7
-70 23 -26 66 28 27 34 39 29 61 -3 15 -2 30 1 34 12 12 33 -17 33 -45 0 -16
5 -29 10 -29 20 0 24 33 8 61 -15 26 -15 28 5 47 52 47 173 84 247 75 25 -3
64 -16 88 -30z"></path>
</g>
</symbol><symbol id="svgtofont-pin"><path d="M24 32.6q5.1-4.1 7.7-7.925 2.6-3.825 2.6-7.075 0-2.9-1.05-4.9-1.05-2-2.6-3.275t-3.35-1.85Q25.5 7 24 7q-1.5 0-3.3.575-1.8.575-3.35 1.85-1.55 1.275-2.6 3.275t-1.05 4.9q0 3.25 2.6 7.075T24 32.6Zm0 4.35q-6.95-5.25-10.325-10Q10.3 22.2 10.3 17.6q0-3.45 1.25-6.075t3.225-4.4q1.975-1.775 4.4-2.65Q21.6 3.6 24 3.6q2.4 0 4.825.875 2.425.875 4.4 2.65 1.975 1.775 3.225 4.4Q37.7 14.15 37.7 17.6q0 4.6-3.375 9.35T24 36.95ZM24 21q1.55 0 2.625-1.1t1.075-2.6q0-1.55-1.075-2.625T24 13.6q-1.5 0-2.6 1.075T20.3 17.3q0 1.5 1.1 2.6T24 21ZM10.3 44.4V41h27.4v3.4ZM24 17.6Z"></path></symbol><symbol id="svgtofont-price"><path d="M27 27q-2.5 0-4.25-1.75T21 21q0-2.5 1.75-4.25T27 15q2.5 0 4.25 1.75T33 21q0 2.5-1.75 4.25T27 27Zm-16 7q-1.25 0-2.125-.875T8 31V11q0-1.25.875-2.125T11 8h32q1.25 0 2.125.875T46 11v20q0 1.25-.875 2.125T43 34Zm5-3h22q0-2.1 1.45-3.55Q40.9 26 43 26V16q-2.1 0-3.55-1.45Q38 13.1 38 11H16q0 2.1-1.45 3.55Q13.1 16 11 16v10q2.1 0 3.55 1.45Q16 28.9 16 31Zm24 9H5q-1.25 0-2.125-.875T2 37V14h3v23h35Zm-29-9V11v20Z"></path></symbol><symbol id="svgtofont-profile"><path d="M24 23.8q-3.45 0-5.625-2.175T16.2 16q0-3.45 2.175-5.625T24 8.2q3.45 0 5.625 2.175T31.8 16q0 3.45-2.175 5.625T24 23.8ZM7.7 40.45v-5q0-2 1-3.425 1-1.425 2.55-2.175 3.4-1.5 6.5-2.25t6.25-.75q3.15 0 6.225.775Q33.3 28.4 36.7 29.9q1.6.7 2.6 2.125t1 3.425v5Zm3.4-3.4h25.8V35.5q0-.8-.475-1.525-.475-.725-1.175-1.075-3.15-1.5-5.775-2.075Q26.85 30.25 24 30.25q-2.85 0-5.525.575Q15.8 31.4 12.7 32.9q-.7.35-1.15 1.075-.45.725-.45 1.525ZM24 20.4q1.9 0 3.15-1.25T28.4 16q0-1.9-1.25-3.15T24 11.6q-1.9 0-3.15 1.25T19.6 16q0 1.9 1.25 3.15T24 20.4Zm0-4.4Zm0 21.05Z"></path></symbol><symbol viewBox="0 0 24 24" id="svgtofont-radiobox_blank"><path d="M12,20A8,8 0 0,1 4,12A8,8 0 0,1 12,4A8,8 0 0,1 20,12A8,8 0 0,1 12,20M12,2A10,10 0 0,0 2,12A10,10 0 0,0 12,22A10,10 0 0,0 22,12A10,10 0 0,0 12,2Z"></path></symbol><symbol viewBox="0 0 24 24" id="svgtofont-radiobox_marked"><path d="M12,20A8,8 0 0,1 4,12A8,8 0 0,1 12,4A8,8 0 0,1 20,12A8,8 0 0,1 12,20M12,2A10,10 0 0,0 2,12A10,10 0 0,0 12,22A10,10 0 0,0 22,12A10,10 0 0,0 12,2M12,7A5,5 0 0,0 7,12A5,5 0 0,0 12,17A5,5 0 0,0 17,12A5,5 0 0,0 12,7Z"></path></symbol><symbol viewBox="0 0 512 512" id="svgtofont-sesame"><path fill="#000" d="M208.4 25.12c-30.5.3-61.8 19.64-76.4 47.46 39.5 30.52 98.8 5.06 118.5-33.01-12.5-10.18-27.2-14.59-42.1-14.45zm89.1 33.98c-30.6 38.5-7.1 96.9 34.5 118.2 30.1-40 3.8-99-34.5-118.2zm119.8 10.65c-20.4 44.55 16.2 95.65 61.8 106.35 19.6-46-20-96.89-61.8-106.35zM86.29 71.19C38.12 80.72 18.2 140.3 36.19 183.5c48.72-11 66.91-72.9 50.1-112.31zM186.6 171.4c-42.3 0-76.5 42.7-77 85.1 49.2 9 90.3-40.9 90.3-83.7-4.5-1-9-1.4-13.3-1.4zm114.6 24.8c-30.6 38.5-7.1 96.9 34.5 118.2 30.1-40 3.8-99-34.5-118.2zM458 248.9c-49.9 2.1-79 59.8-69.5 101.6 49.1-.8 79.4-55.9 69.5-101.6zm-318.8 65.8c-39.4 29.3-31.8 91.7 3 123 39.3-30.9 29.1-94.7-3-123zM265.3 325c-24.8-.2-50.2 9.9-65.8 26.5 28.2 40.3 90.8 34.5 123.1.7-13.9-18.9-35.4-27.1-57.3-27.2zM53.46 365.7c-29.71 39-5.16 96.9 36.9 117.4 29.24-40.6 1.8-99-36.9-117.4zm362.74 24.2c-45.4-.3-78.8 47.9-75 92.3 49.9 4.3 86-49.3 81.8-91.9-2.3-.3-4.5-.4-6.8-.4z"></path></symbol><symbol id="svgtofont-share"><path d="M36.35 44.3q-2.5 0-4.25-1.775T30.35 38.3q0-.35.075-.85t.225-.9L15.95 28q-.75.9-1.9 1.45-1.15.55-2.35.55-2.5 0-4.25-1.75T5.7 24q0-2.5 1.75-4.25T11.7 18q1.2 0 2.3.475 1.1.475 1.95 1.375l14.7-8.45q-.15-.35-.225-.825-.075-.475-.075-.875 0-2.5 1.75-4.25t4.25-1.75q2.5 0 4.25 1.75t1.75 4.25q0 2.5-1.75 4.25t-4.25 1.75q-1.2 0-2.325-.4-1.125-.4-1.875-1.25l-14.7 8.1q.1.4.175.95.075.55.075.9t-.075.75q-.075.4-.175.85l14.7 8.3q.75-.7 1.8-1.15 1.05-.45 2.4-.45 2.5 0 4.25 1.75t1.75 4.25q0 2.5-1.75 4.25t-4.25 1.75Zm0-31.9q1.15 0 1.925-.775.775-.775.775-1.925t-.775-1.925Q37.5 7 36.35 7t-1.925.775q-.775.775-.775 1.925t.775 1.925q.775.775 1.925.775ZM11.7 26.7q1.15 0 1.925-.775.775-.775.775-1.925t-.775-1.925Q12.85 21.3 11.7 21.3t-1.925.775Q9 22.85 9 24t.775 1.925q.775.775 1.925.775ZM36.35 41q1.15 0 1.925-.775.775-.775.775-1.925t-.775-1.925Q37.5 35.6 36.35 35.6t-1.925.775q-.775.775-.775 1.925t.775 1.925Q35.2 41 36.35 41Zm0-31.3ZM11.7 24Zm24.65 14.3Z"></path></symbol><symbol viewBox="0 0 511.998 511.998" id="svgtofont-soy_beans">
<g>
	<g>
		<path d="M450.412,146.363c-3.654-2.088-8.31-0.819-10.398,2.835c-2.745,4.802-5.571,9.634-8.401,14.36
			c-2.162,3.611-1.077,8.447,2.624,10.454c4.636,2.515,9.025-0.239,10.454-2.624c2.883-4.815,5.762-9.736,8.558-14.628
			C455.335,153.107,454.066,148.452,450.412,146.363z"></path>
	</g>
</g>
<g>
	<g>
		<path d="M502.794,5.455c-5.608-4.468-12.996-6.167-20.584-5.093c-0.066,0.005-0.131,0-0.197,0.012
			C425.41,10.14,379.197,28.253,378.831,28.469c-31.526-6.276-65.241,3.091-89.054,26.903c-8.305,8.305-14.925,17.901-19.726,28.275
			c-21.328,13.781-41.923,29.082-61.239,45.479c-18.313,4.002-35.232,13.181-48.626,26.576
			c-14.274,14.274-23.341,32.008-27.01,50.678c-0.017,0.02-0.037,0.039-0.054,0.06c-14.714,18.07-28.648,37.363-41.412,57.34
			c-0.096,0.149-0.177,0.304-0.26,0.457c-11.738,4.879-22.588,12.051-31.865,21.329C34.96,310.192,25.78,345.55,33.434,378.051
			c-12.525,31.392-23.322,64.823-32.117,99.415c-2.544,8.492-1.318,16.946,2.944,23.84c8.87,14.344,26.967,10.332,29.931,9.483
			c6.043-1.729,149.582-43.964,288.527-182.885c0.019-0.019,0.039-0.038,0.054-0.053c39.969-39.969,75.893-84.427,106.773-132.14
			c2.286-3.534,1.276-8.252-2.257-10.539c-3.533-2.285-8.251-1.276-10.539,2.257c-30.291,46.802-65.526,90.411-104.726,129.616
			c-0.019,0.019-0.039,0.038-0.054,0.053C175.774,453.278,35.884,494.448,29.997,496.133c-5.609,1.605-10.388,0.154-13.09-3.338
			c-4.539-5.866,0.198-14.204,1.221-15.916c25.543-42.761,54.643-85.141,86.491-125.962c2.589-3.319,1.998-8.107-1.321-10.695
			c-3.319-2.589-8.107-1.998-10.695,1.321C79.523,358.306,66.91,375.334,54.8,392.54c-15.835-31.602-9.935-70.701,15.561-96.198
			c19.274-19.274,46.567-27.833,73.363-23.118c0.755,1.354,1.54,2.697,2.365,4.025c-10.105,11.423-19.982,22.935-29.558,34.513
			c-2.682,3.242-2.208,8.023,1.015,10.73c4.051,3.402,9.222,0.807,10.73-1.015c27.504-33.251,57.359-66.019,88.734-97.395
			C351.226,89.865,472.221,20.779,477.306,17.904c2.135-1.206,9.323-5.732,15.99-0.528c3.618,2.824,4.463,8.488,2.223,14.339
			c-12.118,31.659-26.09,62.609-41.531,91.99c-1.958,3.726-0.525,8.333,3.201,10.291c3.725,1.956,8.333,0.524,10.291-3.201
			c15.719-29.912,29.941-61.414,42.273-93.631C514.416,24.983,511.683,12.537,502.794,5.455z M32.376,425.497
			c2.881-8.687,5.89-17.253,9.026-25.688c1.147,2.261,2.382,4.489,3.718,6.678C40.801,412.803,36.553,419.141,32.376,425.497z
			 M113.821,257.919c5.731-8.446,11.673-16.725,17.779-24.814c0.63,8.066,2.273,16.084,4.914,23.869
			C128.876,256.406,121.266,256.742,113.821,257.919z M262.599,106.985c-1.524,8.172-2.014,16.565-1.422,24.988
			c-8.272-2.769-16.906-4.445-25.673-4.951C244.333,120.091,253.373,113.39,262.599,106.985z M206.232,213.304
			c-16.975,16.975-33.492,34.364-49.459,52.008c-17.607-32.081-12.204-72.437,14.19-98.831
			c26.779-26.78,67.345-31.966,99.573-13.783C249.731,171.186,228.152,191.383,206.232,213.304z M282.543,142.138
			c-1.698-1.076-3.425-2.098-5.181-3.066c-4.534-26.634,4.081-53.811,23.191-72.923c25.903-25.903,65.658-31.569,97.496-14.875
			C366.423,73.608,326.474,103.916,282.543,142.138z M411.855,41.657c-3.241-2.042-6.566-3.88-9.962-5.503
			c12.375-4.279,23.751-7.718,33.833-10.465C428.683,30.272,420.691,35.591,411.855,41.657z"></path>
	</g>
</g>
<g>
</g>
<g>
</g>
<g>
</g>
<g>
</g>
<g>
</g>
<g>
</g>
<g>
</g>
<g>
</g>
<g>
</g>
<g>
</g>
<g>
</g>
<g>
</g>
<g>
</g>
<g>
</g>
<g>
</g>
</symbol><symbol id="svgtofont-star"><path d="m16.3 37.5 7.7-4.6 7.7 4.65-2.1-8.7L36.35 23l-8.9-.8L24 14l-3.45 8.15-8.9.8 6.75 5.85Zm-5.1 7.1 3.4-14.55-11.35-9.8L18.2 19 24 5.25 29.8 19l14.95 1.25-11.35 9.8 3.4 14.55L24 36.9ZM24 26.25Z"></path></symbol><symbol id="svgtofont-star_filled"><path d="m11.65 44 3.25-14.05L4 20.5l14.4-1.25L24 6l5.6 13.25L44 20.5l-10.9 9.45L36.35 44 24 36.55Z"></path></symbol><symbol id="svgtofont-suggestion"><path d="m24 46-6-6H9q-1.2 0-2.1-.925Q6 38.15 6 37V7q0-1.2.9-2.1Q7.8 4 9 4h30q1.15 0 2.075.9Q42 5.8 42 7v30q0 1.15-.925 2.075Q40.15 40 39 40h-9ZM9 37h10.2l4.8 4.8 4.8-4.8H39V7H9v30ZM9 7v30V7Zm17.85 17.95 6.4-2.8-6.4-2.8-2.8-6.4-2.85 6.4-6.35 2.8 6.35 2.8 2.85 6.4Z"></path></symbol><symbol id="svgtofont-toggle_off"><path d="M14 36.3q-5.1 0-8.7-3.6-3.6-3.6-3.6-8.7t3.6-8.7q3.6-3.6 8.7-3.6h20q5.1 0 8.7 3.6 3.6 3.6 3.6 8.7t-3.6 8.7q-3.6 3.6-8.7 3.6Zm0-3.3h20q3.75 0 6.375-2.625T43 24q0-3.75-2.625-6.375T34 15H14q-3.75 0-6.375 2.625T5 24q0 3.75 2.625 6.375T14 33Zm-.05-3.95q2.1 0 3.575-1.475T19 24q0-2.1-1.475-3.575T13.95 18.95q-2.1 0-3.575 1.475T8.9 24q0 2.1 1.475 3.575t3.575 1.475ZM24 24Z"></path></symbol><symbol id="svgtofont-toggle_on"><path d="M14 36.3q-5.1 0-8.7-3.6-3.6-3.6-3.6-8.7t3.6-8.7q3.6-3.6 8.7-3.6h20q5.1 0 8.7 3.6 3.6 3.6 3.6 8.7t-3.6 8.7q-3.6 3.6-8.7 3.6Zm0-3.3h20q3.75 0 6.375-2.625T43 24q0-3.75-2.625-6.375T34 15H14q-3.75 0-6.375 2.625T5 24q0 3.75 2.625 6.375T14 33Zm20.05-3.95q2.1 0 3.575-1.475T39.1 24q0-2.1-1.475-3.575T34.05 18.95q-2.1 0-3.575 1.475T29 24q0 2.1 1.475 3.575t3.575 1.475ZM24 24Z"></path></symbol><symbol id="svgtofont-trending_down"><path d="M32.3 36.2v-3.4h6.25L27 21.25l-8.35 8.35-14.9-14.85L6.2 12.3l12.4 12.4 8.35-8.35L40.9 30.3v-6.05h3.35V36.2Z"></path></symbol><symbol id="svgtofont-trending_up"><path d="m6.2 36.2-2.45-2.45 14.9-14.8L27 27.3l11.55-11.6H32.3v-3.4h11.95v11.95H40.9V18.2L26.95 32.15 18.6 23.8Z"></path></symbol><symbol id="svgtofont-tune"><path d="M21.3 42.3V30.75h3.25v4.15H42.2v3.3H24.55v4.1ZM5.8 38.2v-3.3h12.6v3.3Zm9.35-8.45v-4.1H5.8v-3.3h9.35v-4.2h3.25v11.6Zm6.15-4.1v-3.3h20.9v3.3Zm8.3-8.4V5.7h3.25v4.1h9.35v3.3h-9.35v4.15ZM5.8 13.1V9.8h20.9v3.3Z"></path></symbol><symbol viewBox="0 0 512.001 512.001" id="svgtofont-wheat">
<g>
	<g>
		<path d="M447.146,223.014c0,0-15.052-13.569-34.115-25.281c6.396,1.542,12.939,2.423,19.336,2.423
			c33.059,0,79.63-41.992,79.63-41.992s-46.223-41.674-79.258-41.984c16.15-3.23,34.298-11.841,46.868-24.411
			C502.983,68.393,506.221,5.77,506.221,5.77s-62.622,3.238-85.999,26.614c-12.561,12.561-21.17,30.693-24.404,46.835
			C395.473,46.186,353.833,0,353.833,0s-41.992,46.571-41.992,79.629c0,6.395,0.88,12.938,2.423,19.336
			c-11.712-19.063-25.281-34.115-25.281-34.115s-41.992,46.571-41.992,79.629c0,6.395,0.88,12.938,2.422,19.336
			c-11.712-19.063-25.281-34.115-25.281-34.115s-41.992,46.571-41.992,79.629c0,7.649,1.259,15.507,3.409,23.075
			c-12.068-20.436-27.058-37.064-27.058-37.064s-41.992,46.571-41.992,79.629c0,9.661,2.001,19.657,5.285,28.974
			c-12.403-22.633-29.879-42.017-29.879-42.017s-41.992,46.571-41.992,79.629c0,26.576,15.065,55.716,30.679,66.129L4.918,483.361
			c-6.552,6.552-6.552,17.174,0,23.725c6.551,6.552,17.174,6.553,23.725,0l75.674-75.674c10.417,15.611,39.551,30.671,66.123,30.671
			c33.059,0,79.63-41.992,79.63-41.992s-19.385-17.476-42.018-29.879c9.319,3.284,19.314,5.285,28.974,5.285
			c33.059,0,79.63-41.992,79.63-41.992s-16.628-14.99-37.064-27.058c7.567,2.15,15.427,3.409,23.075,3.409
			c33.059,0,79.629-41.992,79.629-41.992s-15.052-13.569-34.115-25.281c6.397,1.542,12.94,2.423,19.336,2.423
			C400.576,265.006,447.146,223.014,447.146,223.014z M132.561,355.718c0.854-4.723,1.337-9.481,1.337-14.161
			c-0.001-6.449-1.604-13.412-4.176-20.444c5.125,8.736,11.245,15.843,17.458,19.985L132.561,355.718z M170.439,378.101
			c-4.674,0-9.426,0.48-14.144,1.333l14.607-14.607c4.144,6.211,11.248,12.326,19.98,17.45
			C183.851,379.703,176.888,378.101,170.439,378.101z M199.147,289.132c0.854-4.723,1.335-9.481,1.335-14.161
			c0-4.844-0.907-9.979-2.445-15.214c4.518,6.772,9.619,12.258,14.782,15.702L199.147,289.132z M237.025,311.513
			c-4.674,0-9.426,0.48-14.144,1.333l13.662-13.662c3.444,5.161,8.927,10.258,15.696,14.773
			C247.004,312.42,241.869,311.513,237.025,311.513z M264.787,223.491c0.854-4.723,1.337-9.481,1.337-14.161
			c0-3.864-0.579-7.915-1.594-12.053c4.096,5.684,8.593,10.3,13.139,13.332L264.787,223.491z M302.666,245.873
			c-4.674,0-9.426,0.48-14.144,1.333l12.871-12.871c3.032,4.544,7.646,9.038,13.326,13.13
			C310.582,246.452,306.532,245.873,302.666,245.873z M329.638,158.64c0.854-4.723,1.335-9.481,1.335-14.161
			c0-3.864-0.579-7.915-1.594-12.053c4.097,5.684,8.594,10.3,13.141,13.332L329.638,158.64z M366.244,169.485
			c3.032,4.544,7.646,9.038,13.326,13.13c-4.138-1.013-8.188-1.593-12.053-1.593c-4.674,0-9.426,0.48-14.144,1.333L366.244,169.485z
			"></path>
	</g>
</g>
<g>
</g>
<g>
</g>
<g>
</g>
<g>
</g>
<g>
</g>
<g>
</g>
<g>
</g>
<g>
</g>
<g>
</g>
<g>
</g>
<g>
</g>
<g>
</g>
<g>
</g>
<g>
</g>
<g>
</g>
</symbol><symbol id="svgtofont-wine"><path d="M16 42v-3h6.5v-9.25q-4.95-.7-7.725-3.975Q12 22.5 12 18V6h24v12q0 4.5-2.775 7.775Q30.45 29.05 25.5 29.75V39H32v3Zm8-15q3.45 0 6.025-2.375T32.9 19.5H15.1q.25 2.75 2.85 5.125T24 27Zm-9-10.5h18V9H15ZM24 27Z"></path></symbol></svg>