<?xml version="1.0" standalone="no"?>
<!DOCTYPE svg PUBLIC "-//W3C//DTD SVG 20010904//EN"
 "http://www.w3.org/TR/2001/REC-SVG-20010904/DTD/svg10.dtd">
<svg version="1.0" xmlns="http://www.w3.org/2000/svg"
 width="512.000000pt" height="512.000000pt" viewBox="0 0 512.000000 512.000000"
 preserveAspectRatio="xMidYMid meet">

<g transform="translate(0.000000,512.000000) scale(0.100000,-0.100000)"
fill="#000000" stroke="none">
<path d="M2835 4709 c-142 -24 -270 -92 -381 -203 -90 -90 -143 -175 -182
-294 -22 -67 -26 -94 -26 -212 0 -118 4 -145 26 -212 39 -119 92 -204 182
-294 139 -139 273 -197 495 -214 189 -14 295 -57 402 -161 50 -50 119 -148
119 -172 0 -4 -17 0 -37 9 -167 73 -408 134 -608 155 -314 31 -513 -27 -691
-205 -90 -90 -143 -175 -182 -294 -22 -67 -26 -94 -26 -212 0 -118 4 -145 26
-212 39 -119 92 -204 182 -294 139 -139 273 -197 495 -214 191 -14 296 -57
405 -166 109 -109 152 -214 166 -405 17 -222 75 -356 214 -495 90 -90 175
-143 294 -182 67 -22 94 -26 212 -26 118 0 145 4 212 26 119 39 204 92 294
182 90 90 142 175 182 294 24 71 26 91 26 247 0 262 -53 515 -155 747 -57 131
-58 120 3 141 185 65 348 222 424 407 52 128 64 258 44 461 -62 611 -390 1152
-905 1489 -189 123 -462 235 -685 279 -192 38 -407 50 -525 30z m313 -160
c877 -95 1548 -772 1643 -1654 6 -60 9 -150 6 -200 -14 -244 -163 -434 -396
-510 l-55 -18 -15 24 c-23 34 -154 207 -191 251 l-31 36 27 27 c27 27 27 28
21 129 -32 522 -346 970 -826 1177 -151 65 -356 109 -509 109 -43 0 -58 -5
-77 -25 -32 -31 -33 -78 -2 -109 20 -20 37 -24 127 -29 302 -20 563 -138 776
-351 204 -205 321 -454 349 -746 7 -73 7 -74 -11 -59 -11 8 -46 38 -79 66 -33
28 -98 77 -145 108 l-85 58 -18 66 c-85 313 -376 541 -691 541 -148 0 -296 61
-400 166 -270 270 -195 729 147 893 45 22 105 44 132 49 70 13 188 14 303 1z
m-320 -1600 c384 -42 732 -194 1029 -452 286 -248 505 -625 583 -1002 46 -222
50 -435 10 -552 -58 -168 -194 -300 -370 -359 -76 -26 -244 -26 -320 0 -181
60 -315 194 -374 370 -9 27 -21 107 -26 177 -17 223 -74 353 -215 494 -141
141 -271 198 -494 215 -70 5 -150 17 -177 26 -264 88 -426 345 -386 615 26
181 142 340 305 418 45 22 105 44 132 49 70 13 188 14 303 1z"/>
<path d="M2425 2295 c-32 -31 -33 -78 -2 -109 20 -20 37 -24 127 -29 302 -20
563 -138 776 -351 214 -214 331 -474 351 -779 5 -87 9 -104 29 -124 32 -32 78
-30 111 3 25 26 26 28 20 128 -32 522 -346 970 -826 1177 -151 65 -356 109
-509 109 -43 0 -58 -5 -77 -25z"/>
<path d="M1175 3906 c-246 -48 -415 -173 -639 -470 -452 -598 -499 -1409 -120
-2054 157 -266 372 -492 549 -577 130 -62 205 -79 355 -79 152 0 227 17 360
82 80 39 109 60 186 137 101 100 149 175 186 295 34 111 32 283 -5 396 -33 99
-89 189 -172 274 -140 144 -190 251 -190 410 0 159 50 266 190 410 83 85 139
175 172 274 37 113 39 285 5 396 -37 120 -85 195 -186 295 -76 76 -107 99
-186 138 -52 25 -124 53 -160 62 -93 22 -260 27 -345 11z m343 -179 c159 -55
284 -160 345 -288 105 -222 67 -419 -122 -621 -102 -109 -150 -185 -185 -289
-63 -187 -36 -399 72 -569 19 -30 72 -94 117 -143 119 -126 175 -250 175 -387
0 -196 -123 -387 -311 -479 -191 -94 -386 -94 -579 0 -73 36 -101 58 -200 158
-262 265 -421 569 -487 931 -24 131 -24 429 0 560 66 362 225 667 487 931 99
99 127 121 200 157 112 56 190 72 315 68 75 -3 119 -10 173 -29z"/>
<path d="M1448 3211 c-176 -182 -296 -411 -345 -659 -23 -118 -23 -346 0 -464
49 -245 168 -474 340 -653 70 -73 87 -85 115 -85 43 0 82 38 82 80 0 25 -16
47 -81 117 -235 249 -346 565 -311 882 29 259 128 470 311 664 65 69 81 92 81
117 0 42 -39 80 -82 80 -28 0 -44 -12 -110 -79z"/>
</g>
</svg>
