<?xml version="1.0" standalone="no"?>
<!DOCTYPE svg PUBLIC "-//W3C//DTD SVG 1.1//EN" "http://www.w3.org/Graphics/SVG/1.1/DTD/svg11.dtd" >
<svg xmlns="http://www.w3.org/2000/svg">
<metadata>Generated by IcoMoon</metadata>
<defs>
<font id="icomoon" horiz-adv-x="1024">
<font-face units-per-em="1024" ascent="960" descent="-64" />
<missing-glyph horiz-adv-x="1024" />
<glyph unicode="&#x20;" horiz-adv-x="512" d="" />
<glyph unicode="&#xe900;" glyph-name="trending_down" d="M689.067 187.733v72.533h133.333l-246.4 246.4-178.133-178.133-317.867 316.8 52.267 52.267 264.533-264.533 178.133 178.133 297.6-297.6v129.067h71.467v-254.933z" />
<glyph unicode="&#xe901;" glyph-name="trending_up" d="M132.267 187.733l-52.267 52.267 317.867 315.733 178.133-178.133 246.4 247.467h-133.333v72.533h254.933v-254.933h-71.467v129.067l-297.6-297.6-178.133 178.133z" />
<glyph unicode="&#xe902;" glyph-name="tune" d="M454.4 57.6v246.4h69.333v-88.533h376.533v-70.4h-376.533v-87.467zM123.733 145.067v70.4h268.8v-70.4zM323.2 325.333v87.467h-199.467v70.4h199.467v89.6h69.333v-247.467zM454.4 412.8v70.4h445.867v-70.4zM631.467 592v246.4h69.333v-87.467h199.467v-70.4h-199.467v-88.533zM123.733 680.533v70.4h445.867v-70.4z" />
<glyph unicode="&#xe903;" glyph-name="toggle_off" d="M298.667 185.6q-108.8 0-185.6 76.8t-76.8 185.6 76.8 185.6 185.6 76.8h426.667q108.8 0 185.6-76.8t76.8-185.6-76.8-185.6-185.6-76.8zM298.667 256h426.667q80 0 136 56t56 136-56 136-136 56h-426.667q-80 0-136-56t-56-136 56-136 136-56zM297.6 340.267q44.8 0 76.267 31.467t31.467 76.267-31.467 76.267-76.267 31.467-76.267-31.467-31.467-76.267 31.467-76.267 76.267-31.467z" />
<glyph unicode="&#xe904;" glyph-name="toggle_on" d="M298.667 185.6q-108.8 0-185.6 76.8t-76.8 185.6 76.8 185.6 185.6 76.8h426.667q108.8 0 185.6-76.8t76.8-185.6-76.8-185.6-185.6-76.8zM298.667 256h426.667q80 0 136 56t56 136-56 136-136 56h-426.667q-80 0-136-56t-56-136 56-136 136-56zM726.4 340.267q44.8 0 76.267 31.467t31.467 76.267-31.467 76.267-76.267 31.467-76.267-31.467-31.467-76.267 31.467-76.267 76.267-31.467z" />
<glyph unicode="&#xe905;" glyph-name="star" d="M347.733 160l164.267 98.133 164.267-99.2-44.8 185.6 144 124.8-189.867 17.067-73.6 174.933-73.6-173.867-189.867-17.067 144-124.8zM238.933 8.533l72.533 310.4-242.133 209.067 318.933 26.667 123.733 293.333 123.733-293.333 318.933-26.667-242.133-209.067 72.533-310.4-273.067 164.267z" />
<glyph unicode="&#xe906;" glyph-name="share" d="M775.467 14.933q-53.333 0-90.667 37.867t-37.333 90.133q0 7.467 1.6 18.133t4.8 19.2l-313.6 182.4q-16-19.2-40.533-30.933t-50.133-11.733q-53.333 0-90.667 37.333t-37.333 90.667 37.333 90.667 90.667 37.333q25.6 0 49.067-10.133t41.6-29.333l313.6 180.267q-3.2 7.467-4.8 17.6t-1.6 18.667q0 53.333 37.333 90.667t90.667 37.333 90.667-37.333 37.333-90.667-37.333-90.667-90.667-37.333q-25.6 0-49.6 8.533t-40 26.667l-313.6-172.8q2.133-8.533 3.733-20.267t1.6-19.2-1.6-16-3.733-18.133l313.6-177.067q16 14.933 38.4 24.533t51.2 9.6q53.333 0 90.667-37.333t37.333-90.667-37.333-90.667-90.667-37.333zM775.467 695.467q24.533 0 41.067 16.533t16.533 41.067-16.533 41.067-41.067 16.533-41.067-16.533-16.533-41.067 16.533-41.067 41.067-16.533zM249.6 390.4q24.533 0 41.067 16.533t16.533 41.067-16.533 41.067-41.067 16.533-41.067-16.533-16.533-41.067 16.533-41.067 41.067-16.533zM775.467 85.333q24.533 0 41.067 16.533t16.533 41.067-16.533 41.067-41.067 16.533-41.067-16.533-16.533-41.067 16.533-41.067 41.067-16.533z" />
<glyph unicode="&#xe907;" glyph-name="wine" d="M341.333 64v64h138.667v197.333q-105.6 14.933-164.8 84.8t-59.2 165.867v256h512v-256q0-96-59.2-165.867t-164.8-84.8v-197.333h138.667v-64zM512 384q73.6 0 128.533 50.667t61.333 109.333h-379.733q5.333-58.667 60.8-109.333t129.067-50.667zM320 608h384v160h-384z" />
<glyph unicode="&#xe908;" glyph-name="radiobox_marked" d="M512 106.667c-188.513 0-341.333 152.82-341.333 341.333v0c0 188.513 152.82 341.333 341.333 341.333v0c188.513 0 341.333-152.82 341.333-341.333v0c0-188.513-152.82-341.333-341.333-341.333v0zM512 874.667c-235.641 0-426.667-191.025-426.667-426.667v0c0-235.641 191.025-426.667 426.667-426.667v0c235.641 0 426.667 191.025 426.667 426.667v0c0 235.641-191.025 426.667-426.667 426.667v0zM512 661.333c-117.821 0-213.333-95.513-213.333-213.333v0c0-117.821 95.513-213.333 213.333-213.333v0c117.821 0 213.333 95.513 213.333 213.333v0c0 117.821-95.513 213.333-213.333 213.333v0z" />
<glyph unicode="&#xe909;" glyph-name="radiobox_blank" d="M512 106.667c-188.513 0-341.333 152.82-341.333 341.333v0c0 188.513 152.82 341.333 341.333 341.333v0c188.513 0 341.333-152.82 341.333-341.333v0c0-188.513-152.82-341.333-341.333-341.333v0zM512 874.667c-235.641 0-426.667-191.025-426.667-426.667v0c0-235.641 191.025-426.667 426.667-426.667v0c235.641 0 426.667 191.025 426.667 426.667v0c0 235.641-191.025 426.667-426.667 426.667v0z" />
<glyph unicode="&#xe90a;" glyph-name="profile" d="M512 452.267q-73.6 0-120 46.4t-46.4 120 46.4 120 120 46.4 120-46.4 46.4-120-46.4-120-120-46.4zM164.267 97.067v106.667q0 42.667 21.333 73.067t54.4 46.4q72.533 32 138.667 48t133.333 16 132.8-16.533 138.133-48.533q34.133-14.933 55.467-45.333t21.333-73.067v-106.667zM236.8 169.6h550.4v33.067q0 17.067-10.133 32.533t-25.067 22.933q-67.2 32-123.2 44.267t-116.8 12.267-117.867-12.267-123.2-44.267q-14.933-7.467-24.533-22.933t-9.6-32.533zM512 524.8q40.533 0 67.2 26.667t26.667 67.2-26.667 67.2-67.2 26.667-67.2-26.667-26.667-67.2 26.667-67.2 67.2-26.667z" />
<glyph unicode="&#xe90b;" glyph-name="pin" d="M512 264.533q108.8 87.467 164.267 169.067t55.467 150.933q0 61.867-22.4 104.533t-55.467 69.867-71.467 39.467-70.4 12.267-70.4-12.267-71.467-39.467-55.467-69.867-22.4-104.533q0-69.333 55.467-150.933t164.267-169.067zM512 171.733q-148.267 112-220.267 213.333t-72 199.467q0 73.6 26.667 129.6t68.8 93.867 93.867 56.533 102.933 18.667 102.933-18.667 93.867-56.533 68.8-93.867 26.667-129.6q0-98.133-72-199.467t-220.267-213.333zM512 512q33.067 0 56 23.467t22.933 55.467q0 33.067-22.933 56t-56 22.933q-32 0-55.467-22.933t-23.467-56q0-32 23.467-55.467t55.467-23.467zM219.733 12.8v72.533h584.533v-72.533z" />
<glyph unicode="&#xe90c;" glyph-name="wheat" d="M894.29 513.973c0 0-30.104 27.138-68.23 50.562 12.792-3.084 25.878-4.846 38.672-4.846 66.118 0 159.26 83.984 159.26 83.984s-92.446 83.348-158.516 83.968c32.3 6.46 68.596 23.682 93.736 48.822 46.752 46.752 53.228 171.998 53.228 171.998s-125.244-6.476-171.998-53.228c-25.122-25.122-42.34-61.386-48.808-93.67-0.69 66.066-83.97 158.438-83.97 158.438s-83.984-93.142-83.984-159.258c0-12.79 1.76-25.876 4.846-38.672-23.424 38.126-50.562 68.23-50.562 68.23s-83.984-93.142-83.984-159.258c0-12.79 1.76-25.876 4.844-38.672-23.424 38.126-50.562 68.23-50.562 68.23s-83.984-93.142-83.984-159.258c0-15.298 2.518-31.014 6.818-46.15-24.136 40.872-54.116 74.128-54.116 74.128s-83.984-93.142-83.984-159.258c0-19.322 4.002-39.314 10.57-57.948-24.806 45.266-59.758 84.034-59.758 84.034s-83.984-93.142-83.984-159.258c0-53.152 30.13-111.432 61.358-132.258l-151.348-151.354c-13.104-13.104-13.104-34.348 0-47.45 13.102-13.104 34.348-13.106 47.45 0l151.348 151.348c20.834-31.222 79.102-61.342 132.246-61.342 66.118 0 159.26 83.984 159.26 83.984s-38.77 34.952-84.036 59.758c18.638-6.568 38.628-10.57 57.948-10.57 66.118 0 159.26 83.984 159.26 83.984s-33.256 29.98-74.128 54.116c15.134-4.3 30.854-6.818 46.15-6.818 66.118 0 159.258 83.984 159.258 83.984s-30.104 27.138-68.23 50.562c12.794-3.084 25.88-4.846 38.672-4.846 66.118 0 159.258 83.984 159.258 83.984zM265.121 248.565c1.708 9.446 2.674 18.962 2.674 28.322-0.002 12.898-3.208 26.824-8.352 40.888 10.25-17.472 22.49-31.686 34.916-39.97l-29.238-29.24zM340.877 203.799c-9.348 0-18.852-0.96-28.288-2.666l29.214 29.214c8.288-12.422 22.496-24.652 39.96-34.9-14.062 5.148-27.988 8.352-40.886 8.352zM398.293 381.737c1.708 9.446 2.67 18.962 2.67 28.322 0 9.688-1.814 19.958-4.89 30.428 9.036-13.544 19.238-24.516 29.564-31.404l-27.344-27.346zM474.049 336.975c-9.348 0-18.852-0.96-28.288-2.666l27.324 27.324c6.888-10.322 17.854-20.516 31.392-29.546-10.47 3.074-20.74 4.888-30.428 4.888zM529.573 513.019c1.708 9.446 2.674 18.962 2.674 28.322 0 7.728-1.158 15.83-3.188 24.106 8.192-11.368 17.186-20.6 26.278-26.664l-25.764-25.764zM605.331 468.255c-9.348 0-18.852-0.96-28.288-2.666l25.742 25.742c6.064-9.088 15.292-18.076 26.652-26.26-8.274 2.026-16.374 3.184-24.106 3.184zM659.275 642.721c1.708 9.446 2.67 18.962 2.67 28.322 0 7.728-1.158 15.83-3.188 24.106 8.194-11.368 17.188-20.6 26.282-26.664l-25.764-25.764zM732.487 621.031c6.064-9.088 15.292-18.076 26.652-26.26-8.276 2.026-16.376 3.186-24.106 3.186-9.348 0-18.852-0.96-28.288-2.666l25.742 25.74z" />
<glyph unicode="&#xe90d;" glyph-name="fish" d="M1015.356 581.295c-5.416 3.82-12.352 4.774-18.6 2.55l-153.424-54.614c-36.342 33.198-90.732 75.37-162.91 111.31 6.548 14.898 11.938 27.688 16.040 38.082 10.648 26.966 13.198 37.626 7.318 47.602-3.484 5.908-9.63 9.782-16.44 10.358-256.601 21.806-407.131-30.368-413.413-32.596-0.256-0.092-0.496-0.208-0.746-0.308-57.856-18.99-116.348-58.584-172.424-117.196-60.26-62.984-96.5-125.15-98.014-127.766-3.656-6.32-3.656-14.112 0-20.432 1.514-2.616 37.756-64.784 98.014-127.766 58.606-61.256 119.85-101.74 180.25-119.64 19.734-6.474 120.976-36.776 287.113-36.776 37.696 0 78.756 1.562 122.94 5.316 6.824 0.582 12.976 4.464 16.456 10.386 6.022 10.25 3.286 21.114-8.594 50.74-4.558 11.366-10.482 25.262-17.626 41.358 68.11 35.088 121.714 75.358 158.926 107.624l156.542-55.724c2.226-0.792 4.538-1.182 6.84-1.182 4.158 0 8.274 1.27 11.762 3.73 5.418 3.822 8.638 10.038 8.638 16.668v231.608c-0.010 6.628-3.232 12.844-8.648 16.668zM660.127 697.753c-3.362-8.746-8.594-21.53-16.73-40.068-39.578 16.982-83.732 31.702-132.404 42.192 43.986 1.88 93.874 1.664 149.134-2.124zM502.089 196.785c52.080 11.478 99.684 28.15 142.436 47.388 9.628-21.732 15.614-36.292 19.32-45.928-60.556-4.142-114.718-3.976-161.756-1.46zM351.125 221.135c-36.316 0-71.092 10.342-103.404 26.692 45.194 47.418 77.586 108.748 92.166 175.308 2.412 11.004-4.558 21.88-15.562 24.29-11.004 2.406-21.88-4.554-24.29-15.562-13.706-62.564-44.954-119.824-88.534-162.694-85.058 57.202-147.726 148.84-167.142 179.326 29.004 45.538 154.394 227.36 306.767 227.36 218.342 0 368.391-94.212 448.273-162.27l-127.966-45.552c-8.128-2.892-13.556-10.588-13.556-19.218s5.43-16.322 13.556-19.218l124.24-44.226c-85.248-69.416-239.286-164.236-444.549-164.236zM739.101 448.821l194.976 69.406-50.438-55.714c-7.036-7.772-7.036-19.61 0-27.38l50.438-55.716-194.976 69.404zM983.198 385.945l-56.922 62.876 56.922 62.878v-125.754zM328.533 527.685c-11.266 0-20.398-9.132-20.398-20.398 0-4.64-0.090-9.32-0.27-13.908-0.436-11.258 8.334-20.74 19.59-21.176 0.27-0.010 0.538-0.014 0.806-0.014 10.902 0 19.944 8.62 20.372 19.606 0.198 5.114 0.298 10.326 0.298 15.49 0 11.268-9.132 20.4-20.398 20.4zM189.416 517.187c-14.142 0-25.646-11.504-25.646-25.646s11.504-25.65 25.646-25.65 25.646 11.506 25.646 25.65-11.502 25.646-25.646 25.646zM459.585 428.571c-3.866 4.274-9.358 6.712-15.122 6.712-5.762 0-11.256-2.438-15.124-6.708l-110.21-121.744c-7.036-7.772-7.036-19.61 0-27.38 18.636-20.584 43.578-31.922 70.228-31.922s51.592 11.338 70.228 31.922c37.22 41.11 37.22 108.008 0 149.12zM429.343 306.831c-10.802-11.934-25.002-18.506-39.982-18.506-9.040 0-17.796 2.392-25.692 6.914l78.032 86.198c9.99-24.556 5.872-54.468-12.358-74.606z" />
<glyph unicode="&#xe90e;" glyph-name="egg" d="M511.973 960c-208.746 0-391.858-268.138-391.858-573.814 0-116.78 40.774-228.493 114.813-314.562 36.159-42.037 78.031-75.206 124.451-98.589 48.785-24.574 100.116-37.035 152.568-37.035 52.45 0 103.787 12.459 152.582 37.029 46.43 23.379 88.315 56.546 124.487 98.578 74.076 86.073 114.872 197.792 114.872 314.579 0 305.676-183.136 573.814-391.913 573.814zM511.945-0.66c-178.060 0-328.491 177.154-328.491 386.846 0 267.163 156.583 510.474 328.518 510.474 171.964 0 328.573-243.311 328.573-510.474 0-209.692-150.479-386.846-328.601-386.846zM394.987 209.311c-40.508 47.089-63.739 111.559-63.739 176.873h-63.34c0-80.248 28.816-159.771 79.061-218.18 46.711-54.304 105.303-84.211 164.976-84.211v63.34c-40.93 0-82.467 22.080-116.958 62.177z" />
<glyph unicode="&#xe90f;" glyph-name="menu" d="M345.6 390.827l-178.773 178.347c-66.56 66.987-66.56 174.933 0 241.493l299.52-298.667-120.747-121.173zM634.88 468.053l-62.72-62.72 293.547-293.547-60.16-60.16-293.547 293.547-293.547-293.547-60.16 60.16 416.427 416.427c-30.293 65.28-8.96 157.013 58.88 224.853 81.493 81.92 198.4 97.28 260.693 34.987 62.72-62.72 47.36-179.627-34.56-261.12-67.84-67.84-159.573-89.173-224.853-58.88z" />
<glyph unicode="&#xe910;" glyph-name="sesame" d="M416.8 909.76c-61-0.6-123.6-39.28-152.8-94.92 79-61.040 197.6-10.12 237 66.020-25 20.36-54.4 29.18-84.2 28.9zM595 841.8c-61.2-77-14.2-193.8 69-236.4 60.2 80 7.6 198-69 236.4zM834.6 820.5c-40.8-89.1 32.4-191.3 123.6-212.7 39.2 92-40 193.78-123.6 212.7zM172.58 817.62c-96.34-19.060-136.18-138.22-100.2-224.62 97.44 22 133.82 145.8 100.2 224.62zM373.2 617.2c-84.6 0-153-85.4-154-170.2 98.4-18 180.6 81.8 180.6 167.4-9 2-18 2.8-26.6 2.8zM602.4 567.6c-61.2-77-14.2-193.8 69-236.4 60.2 80 7.6 198-69 236.4zM916 462.2c-99.8-4.2-158-119.6-139-203.2 98.2 1.6 158.8 111.8 139 203.2zM278.4 330.6c-78.8-58.6-63.6-183.4 6-246 78.6 61.8 58.2 189.4-6 246zM530.6 310c-49.6 0.4-100.4-19.8-131.6-53 56.4-80.6 181.6-69 246.2-1.4-27.8 37.8-70.8 54.2-114.6 54.4zM106.92 228.6c-59.42-78-10.32-193.8 73.8-234.8 58.48 81.2 3.6 198-73.8 234.8zM832.4 180.2c-90.8 0.6-157.6-95.8-150-184.6 99.8-8.6 172 98.6 163.6 183.8-4.6 0.6-9 0.8-13.6 0.8z" />
<glyph unicode="&#xe911;" glyph-name="mustard" d="M647.512 696.974l-16.91 101.456c-1.465 8.819-9.101 15.287-18.039 15.287h-20.429l-16.282 130.268c-1.143 9.141-8.918 16.014-18.142 16.014h-73.144c-9.225 0-16.999-6.874-18.142-16.019l-16.282-130.268h-20.429c-8.938 0-16.569-6.463-18.034-15.287l-16.005-96.032c-42.911-7.552-75.673-44.841-75.673-89.826v-585.136c0-50.409 41.061-91.43 91.544-91.43h200.908c50.483 0 91.544 41.016 91.544 91.43v585.146c-0.005 38.002-23.363 70.62-56.486 84.398zM500.709 923.428h40.858l13.713-109.711h-68.284l13.713 109.711zM445.203 777.145h151.865l12.189-73.144h-176.243l12.189 73.144zM356.569 612.576c0 30.247 24.66 54.853 54.972 54.853h200.908c30.312 0 54.972-24.606 54.972-54.858v-146.283h-310.852v146.288zM667.426 27.44c-0.005-30.252-24.665-54.858-54.977-54.858h-200.908c-30.312 0-54.972 24.606-54.972 54.858v237.713h310.857v-237.713zM667.426 301.72v0h-310.857v127.997h310.857v-127.997z" />
<glyph unicode="&#xe912;" glyph-name="milk" d="M679.651 704.63v0c-22.216 48.784-43.058 94.819-43.058 138.106v8.932c7.787 1.603 13.742 8.474 13.742 16.719v74.435c0 9.39-7.787 17.177-17.177 17.177h-242.544c-9.39 0-17.177-7.787-17.177-17.177v-74.435c0-8.245 5.955-15.116 13.742-16.719v-8.932c0-43.287-20.842-89.322-43.058-138.106-24.964-55.197-50.845-112.225-50.845-173.606v-457.605c0-33.439 9.161-60.922 27.484-81.764 15.803-25.881 46.722-55.655 83.597-55.655h215.29c29.087 0 63.9 27.942 83.597 55.655 17.406 23.132 27.484 52.906 27.484 81.535v457.605c-0.229 61.609-26.11 118.638-51.074 173.835zM407.791 925.645h208.19v-40.081h-208.19v40.081zM696.141 73.419c0-21.3-7.558-43.516-20.842-60.922v0c0-0.229-0.229-0.229-0.229-0.458-17.177-24.277-43.058-41.455-55.655-41.455h-215.29c-18.323 0-40.997 16.49-54.968 40.081-0.687 0.916-1.374 2.061-2.061 2.748-13.055 14.429-19.697 34.584-19.697 60.006v91.384h368.741v-91.384zM696.141 199.386h-368.741v268.654h368.741v-268.654zM696.141 502.395h-368.741v28.629c0 54.051 24.277 107.645 47.868 159.406v0c23.819 52.219 46.035 101.69 46.035 152.306v8.474h180.935v-8.474c0-50.616 22.445-100.087 46.035-152.306 23.59-51.761 47.868-105.584 47.868-159.406v-28.629zM601.551 642.104c8.016 5.039 10.535 15.574 5.497 23.59-5.726 9.161-21.071 35.042-25.652 47.868-5.497 18.781-11.452 59.548-11.452 60.006-1.374 9.39-10.077 16.032-19.468 14.658s-16.032-10.077-14.658-19.468c0.229-1.832 6.184-44.432 12.597-65.503 0-0.229 0.229-0.458 0.229-0.687 6.413-18.323 26.568-51.074 28.858-54.739 3.206-5.268 8.932-8.245 14.658-8.245v0c2.977 0 6.184 0.916 9.39 2.519zM630.867 601.57c0-10.119-8.203-18.323-18.323-18.323s-18.323 8.203-18.323 18.323c0 10.119 8.203 18.323 18.323 18.323s18.323-8.203 18.323-18.323z" />
<glyph unicode="&#xe913;" glyph-name="frozen" d="M480 21.333v208l-158.933-158.933-45.867 44.8 204.8 204.8v96h-96l-200.533-200.533-46.933 43.733 156.8 156.8h-208v64h208l-160 160 45.867 45.867 204.8-205.867h96v97.067l-200.533 200.533 44.8 46.933 155.733-156.8v206.933h64v-206.933l160 160 44.8-45.867-204.8-204.8v-97.067h97.067l201.6 201.6 45.867-44.8-156.8-156.8h206.933v-64h-206.933l157.867-158.933-43.733-45.867-204.8 204.8h-97.067v-96l204.8-205.867-43.733-45.867-161.067 161.067v-208z" />
<glyph unicode="&#xe914;" glyph-name="map" d="M874.667 832l-6.827-1.28-227.84-88.32-256 89.6-240.64-81.067c-8.96-2.987-15.36-10.667-15.36-20.48v-645.12c0-11.782 9.551-21.333 21.333-21.333v0l6.827 1.28 227.84 88.32 256-89.6 240.64 81.067c8.96 2.987 15.36 10.667 15.36 20.48v645.12c0 11.782-9.551 21.333-21.333 21.333v0zM426.667 726.613l170.667-59.733v-497.493l-170.667 59.733v497.493zM213.333 684.373l128 43.093v-499.2l-128-49.493v505.6zM810.667 211.627l-128-43.093v498.773l128 49.493v-505.173z" />
<glyph unicode="&#xe915;" glyph-name="soy_beans" d="M900.828 667.273c-7.308 4.176-16.62 1.638-20.796-5.67-5.49-9.604-11.142-19.268-16.802-28.72-4.324-7.222-2.154-16.894 5.248-20.908 9.272-5.030 18.050 0.478 20.908 5.248 5.766 9.63 11.524 19.472 17.116 29.256 4.172 7.306 1.634 16.616-5.674 20.794zM1005.592 949.090c-11.216 8.936-25.992 12.334-41.168 10.186-0.132-0.010-0.262 0-0.394-0.024-113.206-19.532-205.633-55.758-206.365-56.19-63.052 12.552-130.483-6.182-178.109-53.806-16.61-16.61-29.85-35.802-39.452-56.55-42.656-27.562-83.846-58.164-122.478-90.958-36.626-8.004-70.464-26.362-97.252-53.152-28.548-28.548-46.682-64.016-54.020-101.356-0.034-0.040-0.074-0.078-0.108-0.12-29.428-36.14-57.296-74.726-82.824-114.68-0.192-0.298-0.354-0.608-0.52-0.914-23.476-9.758-45.176-24.102-63.73-42.658-49.25-49.252-67.61-119.968-52.302-184.971-25.050-62.784-46.644-129.647-64.234-198.831-5.088-16.984-2.636-33.892 5.888-47.68 17.74-28.688 53.934-20.664 59.862-18.966 12.086 3.458 299.165 87.928 577.056 365.771 0.038 0.038 0.078 0.076 0.108 0.106 79.938 79.938 151.787 168.855 213.547 264.281 4.572 7.068 2.552 16.504-4.514 21.078-7.066 4.57-16.502 2.552-21.078-4.514-60.582-93.604-131.053-180.823-209.453-259.233-0.038-0.038-0.078-0.076-0.108-0.106-272.393-272.361-552.174-354.701-563.948-358.071-11.218-3.21-20.776-0.308-26.18 6.676-9.078 11.732 0.396 28.408 2.442 31.832 51.086 85.522 109.286 170.283 172.983 251.925 5.178 6.638 3.996 16.214-2.642 21.39-6.638 5.178-16.214 3.996-21.39-2.642-26.16-33.526-51.386-67.582-75.606-101.994-31.67 63.204-19.87 141.403 31.122 192.397 38.548 38.548 93.134 55.666 146.727 46.236 1.51-2.708 3.080-5.394 4.73-8.050-20.21-22.846-39.964-45.87-59.116-69.026-5.364-6.484-4.416-16.046 2.030-21.46 8.102-6.804 18.444-1.614 21.46 2.030 55.008 66.502 114.718 132.039 177.469 194.791 268.433 268.435 510.424 406.608 520.594 412.358 4.27 2.412 18.646 11.464 31.98 1.056 7.236-5.648 8.926-16.976 4.446-28.678-24.236-63.318-52.18-125.218-83.062-183.981-3.916-7.452-1.050-16.666 6.402-20.582 7.45-3.912 16.666-1.048 20.582 6.402 31.438 59.824 59.882 122.828 84.546 187.263 9.326 24.362 3.86 49.254-13.918 63.418zM64.752 109.003c5.762 17.374 11.78 34.506 18.052 51.376 2.294-4.522 4.764-8.978 7.436-13.356-8.638-12.632-17.134-25.308-25.488-38.020zM227.643 444.16c11.462 16.892 23.346 33.45 35.558 49.628 1.26-16.132 4.546-32.168 9.828-47.738-15.276 1.136-30.496 0.464-45.386-1.89zM525.2 746.029c-3.048-16.344-4.028-33.13-2.844-49.976-16.544 5.538-33.812 8.89-51.346 9.902 17.658 13.862 35.738 27.264 54.19 40.074zM412.466 533.39c-33.95-33.95-66.984-68.728-98.918-104.016-35.214 64.162-24.408 144.875 28.38 197.663 53.558 53.56 134.691 63.932 199.147 27.566-41.61-36.976-84.768-77.37-128.609-121.212zM565.088 675.723c-3.396 2.152-6.85 4.196-10.362 6.132-9.068 53.268 8.162 107.622 46.382 145.847 51.806 51.806 131.317 63.138 194.993 29.75-63.252-44.668-143.151-105.284-231.013-181.729zM823.713 876.686c-6.482 4.084-13.132 7.76-19.924 11.006 24.75 8.558 47.502 15.436 67.666 20.93-14.086-9.166-30.070-19.804-47.742-31.936z" />
<glyph unicode="&#xe916;" glyph-name="celery" d="M1023.992 468.268l-130.118 78.242 17.058 45.644-0.142 0.054c10.82 7.956 21.568 17.29 32.358 28.084l35.662 35.676-122.262 44.402 21.4 115.344-115.274-21.436-44.428 122.244-35.662-35.634c-8.538-8.532-20.768-20.766-32.452-36.302l-39.588-14.736-78.282 130.15-44.692-108.254-116.236 80.99 9.61-74.744c4.376-34.118 9.636-75.128 27.066-112.7l-323.194-323.194c-50.728-50.71-78.986-104.184-83.992-158.94-6.562-71.792 26.414-144.494 97.92-215.994l12.32-12.352c65.648-65.642 132.218-98.814 198.174-98.81 5.976 0.002 11.958 0.274 17.922 0.82 54.746 5.008 108.226 33.262 158.954 83.984l323.188 323.184c37.71-17.516 78.872-22.738 113.114-27.082l74.24-9.436-80.926 116.112 108.262 44.684zM64.79 257.312c3.602 39.396 25.616 79.556 65.438 119.364l358.532 358.524-14.082 21.794c-7.232 11.194-12.544 23.774-16.604 37.018l58.366-40.668 26.524 64.248 40.026-66.54 33.19 12.354c-1.126-11.766-0.754-24.194 1.7-37.274-63.176-63.11-336.91-336.562-385.496-385.164-56.708-56.692-104.264-145.406-94.43-242.042-53.112 55.174-77.728 108.428-73.164 158.386zM208.718 180.146c16.714 58.536 53.876 100.202 69.084 115.406 54.712 54.724 395.026 394.684 398.456 398.11l14.102 14.086-6.364 18.89c-8.378 24.874-3.442 46.724 10.088 68.322l26.816-73.786 76.832 14.288-14.266-76.882 71.636-26.016c-20.904-11.084-45.638-16.238-73.482-5.678l-19.402 7.354-14.68-14.664c-3.454-3.45-346.008-345.616-400.762-400.37-16.484-16.484-71.152-65.594-145.092-75.388 1.208 12.018 3.552 24.134 7.034 36.328zM858.026 394.042c-13.228 4.058-25.802 9.374-36.988 16.612l-21.798 14.108-358.542-358.54c-69.392-69.382-137.728-83.998-210.682-43.58-11.046 18.63-19.002 37.656-23.796 57.022 95.946 11.36 165.264 73.404 185.976 94.114 48.474 48.476 322.614 322.312 387.154 386.78 16.722-3.876 33.49-4.766 50.204-2.676l-14.538-38.9 66.544-40.016-64.242-26.518 40.708-58.406z" />
<glyph unicode="&#xe917;" glyph-name="leaf" d="M136.828 87.541c-43.157 44.138-76.751 95.14-100.782 153.010s-36.046 117.209-36.046 178.024c0 71.599 12.506 137.071 37.517 196.412s62.529 114.023 112.552 164.046c34.329 34.329 76.996 63.264 128 86.805s111.079 41.931 180.231 55.172c69.148 13.241 147.371 21.578 234.665 25.011s184.398 1.716 291.31-5.149c7.846-105.931 10.544-202.789 8.093-290.575-2.454-87.787-10.3-166.497-23.541-236.137-13.241-69.643-31.878-130.698-55.907-183.172-24.032-52.478-53.704-96.369-89.014-131.679-50.021-50.024-103.968-87.785-161.838-113.286-57.87-25.505-119.663-38.255-185.379-38.255-67.679 0-129.716 11.525-186.115 34.576s-107.647 58.114-153.747 105.197zM288.368 87.541c24.521-16.677 52.966-29.428 85.332-38.255 32.369-8.828 66.698-13.241 102.99-13.241 51.984 0 102.499 10.791 151.541 32.369s93.668 52.966 133.883 94.162c26.483 26.483 49.043 61.055 67.679 103.724 18.637 42.665 33.838 93.177 45.61 151.538 11.769 58.361 19.615 124.324 23.538 197.886 3.923 73.563 3.923 154.483 0 242.759-92.199 1.962-174.836 0.736-247.907-3.678s-137.562-12.506-193.472-24.276c-55.907-11.77-103.968-26.728-144.183-44.874s-73.073-40.46-98.575-66.942c-41.195-42.176-72.582-86.804-94.161-133.885-21.579-47.079-32.368-95.144-32.368-144.183 0-47.083 10.054-96.369 30.161-147.862 20.107-51.497 44.873-92.937 74.299-124.324 51.985 96.122 114.268 182.438 186.851 258.945 72.584 76.503 149.578 136.828 230.99 180.964-85.335-73.564-154.483-153.256-207.448-239.081-52.967-85.822-91.22-179.74-114.76-281.745z" />
<glyph unicode="&#xe918;" glyph-name="info" d="M554.667 576h-85.333v85.333h85.333zM554.667 234.667h-85.333v256h85.333zM512 874.667c-235.641 0-426.667-191.025-426.667-426.667v0c0-235.641 191.025-426.667 426.667-426.667v0c235.641 0 426.667 191.025 426.667 426.667v0c0 235.641-191.025 426.667-426.667 426.667v0z" />
<glyph unicode="&#xe919;" glyph-name="dashboard" d="M542.933 547.2v296.533h364.8v-296.533zM116.267 410.667v433.067h364.8v-433.067zM542.933 53.333v432h364.8v-432zM116.267 53.333v296.533h364.8v-296.533z" />
<glyph unicode="&#xe91a;" glyph-name="close" d="M265.6 150.4l-51.2 51.2 246.4 246.4-246.4 246.4 51.2 51.2 246.4-246.4 246.4 246.4 51.2-51.2-246.4-246.4 246.4-246.4-51.2-51.2-246.4 246.4z" />
<glyph unicode="&#xe91b;" glyph-name="checkbox_marked" d="M426.667 234.667l-213.333 213.333 60.16 60.587 153.173-153.173 323.84 323.84 60.16-60.587zM810.667 832h-597.333c-47.36 0-85.333-37.973-85.333-85.333v-597.333c0-47.128 38.205-85.333 85.333-85.333v0h597.333c47.128 0 85.333 38.205 85.333 85.333v0 597.333c0 47.36-38.4 85.333-85.333 85.333z" />
<glyph unicode="&#xe91c;" glyph-name="checkbox_blank" d="M810.667 832h-597.333c-47.36 0-85.333-37.973-85.333-85.333v-597.333c0-47.128 38.205-85.333 85.333-85.333v0h597.333c47.128 0 85.333 38.205 85.333 85.333v0 597.333c0 47.36-38.4 85.333-85.333 85.333z" />
<glyph unicode="&#xe91d;" glyph-name="arrow_back" d="M698.667 14.933l-433.067 433.067 433.067 433.067 66.133-67.2-365.867-365.867 365.867-365.867z" />
</font>
</defs>
</svg>
